<svg xmlns="http://www.w3.org/2000/svg" viewBox="0 0 400 1200" width="400" height="1200" style="background:#f1f5f9; font-family:sans-serif;">
  <text x="200" y="30" text-anchor="middle" font-size="14" font-weight="bold" fill="#334155">WIREFRAME MOBILE (375px) - KM</text>
  <rect x="25" y="45" width="350" height="1130" fill="#ffffff" stroke="#334155" stroke-width="3" rx="16" />

  <!-- HEADER MOBILE -->
  <rect x="25" y="45" width="350" height="55" fill="#f8fafc" stroke="#cbd5e1" stroke-width="1" />
  <rect x="40" y="60" width="100" height="26" fill="#cbd5e1" rx="3" />
  <text x="90" y="77" text-anchor="middle" font-size="11" font-weight="bold" fill="#334155">KM | Mahamady</text>
  <!-- Burger -->
  <rect x="330" y="60" width="30" height="26" fill="#334155" rx="4" />
  <line x1="336" y1="67" x2="354" y2="67" stroke="#ffffff" stroke-width="2" />
  <line x1="336" y1="73" x2="354" y2="73" stroke="#ffffff" stroke-width="2" />
  <line x1="336" y1="79" x2="354" y2="79" stroke="#ffffff" stroke-width="2" />

  <!-- HERO MOBILE -->
  <rect x="40" y="115" width="80" height="18" fill="#dbeafe" rx="3" />
  <text x="80" y="128" text-anchor="middle" font-size="9" font-weight="bold" fill="#1d4ed8">HERO</text>
  <circle cx="200" cy="180" r="40" fill="#f8fafc" stroke="#94a3b8" stroke-width="1.5" stroke-dasharray="3,3" />
  <text x="200" y="184" text-anchor="middle" font-size="10" fill="#64748b" font-weight="bold">AVATAR</text>
  <rect x="45" y="235" width="310" height="32" fill="#334155" rx="4" />
  <text x="200" y="255" text-anchor="middle" font-size="12" font-weight="bold" fill="#ffffff">[H1] Développeur Web Junior</text>
  <rect x="60" y="280" width="280" height="10" fill="#e2e8f0" rx="2" />
  <rect x="80" y="296" width="240" height="10" fill="#e2e8f0" rx="2" />
  <rect x="60" y="320" width="280" height="34" fill="#2563eb" rx="5" />
  <text x="200" y="342" text-anchor="middle" font-size="12" font-weight="bold" fill="#ffffff">Voir mes projets</text>

  <!-- A PROPOS -->
  <line x1="25" y1="375" x2="375" y2="375" stroke="#e2e8f0" stroke-width="1" />
  <rect x="45" y="390" width="180" height="24" fill="#475569" rx="3" />
  <text x="135" y="406" text-anchor="middle" font-size="11" font-weight="bold" fill="#ffffff">[H2] Présentation</text>
  <rect x="45" y="425" width="310" height="10" fill="#cbd5e1" rx="2" />
  <rect x="45" y="442" width="290" height="10" fill="#cbd5e1" rx="2" />

  <!-- COMPETENCES -->
  <line x1="25" y1="475" x2="375" y2="475" stroke="#e2e8f0" stroke-width="1" />
  <rect x="45" y="490" width="180" height="24" fill="#475569" rx="3" />
  <text x="135" y="506" text-anchor="middle" font-size="11" font-weight="bold" fill="#ffffff">[H2] Compétences</text>
  <rect x="45" y="525" width="310" height="50" fill="#f8fafc" stroke="#cbd5e1" rx="4" />
  <rect x="45" y="585" width="310" height="50" fill="#f8fafc" stroke="#cbd5e1" rx="4" />

  <!-- PROJETS -->
  <line x1="25" y1="655" x2="375" y2="655" stroke="#e2e8f0" stroke-width="1" />
  <rect x="45" y="670" width="180" height="24" fill="#475569" rx="3" />
  <text x="135" y="686" text-anchor="middle" font-size="11" font-weight="bold" fill="#ffffff">[H2] Réalisations</text>
  <rect x="45" y="705" width="310" height="140" fill="#ffffff" stroke="#cbd5e1" rx="5" />
  <rect x="45" y="705" width="310" height="70" fill="#e2e8f0" rx="5" />
  <text x="200" y="745" text-anchor="middle" font-size="11" fill="#64748b">[H3] Projet 1 - CSS3</text>
  <rect x="55" y="785" width="290" height="10" fill="#cbd5e1" rx="2" />

  <!-- CONTACT -->
  <line x1="25" y1="865" x2="375" y2="865" stroke="#e2e8f0" stroke-width="1" />
  <rect x="45" y="880" width="180" height="24" fill="#475569" rx="3" />
  <text x="135" y="896" text-anchor="middle" font-size="11" font-weight="bold" fill="#ffffff">[H2] Contact</text>
  <rect x="45" y="915" width="310" height="32" fill="#f8fafc" stroke="#cbd5e1" rx="4" />
  <rect x="45" y="955" width="310" height="32" fill="#f8fafc" stroke="#cbd5e1" rx="4" />
  <rect x="45" y="995" width="310" height="60" fill="#f8fafc" stroke="#cbd5e1" rx="4" />
  <rect x="45" y="1065" width="310" height="36" fill="#2563eb" rx="5" />
  <text x="200" y="1088" text-anchor="middle" font-size="12" font-weight="bold" fill="#ffffff">Envoyer</text>

  <!-- FOOTER -->
  <rect x="25" y="1120" width="350" height="55" fill="#0f172a" rx="0 0 14 14" />
  <text x="200" y="1152" text-anchor="middle" font-size="10" fill="#94a3b8">© 2026 KM • Écoconçu &amp; Accessible</text>
</svg>